<svg width="82" height="85" viewBox="0 0 82 85" fill="none" xmlns="http://www.w3.org/2000/svg">
<line x1="3" y1="20" x2="3" y2="82" stroke="#DAD0D1" stroke-width="6" stroke-linecap="round"/>
<line x1="3" y1="82" x2="65" y2="82" stroke="#DAD0D1" stroke-width="6" stroke-linecap="round"/>
<line x1="65" y1="82" x2="65" y2="46" stroke="#DAD0D1" stroke-width="6" stroke-linecap="round"/>
<line x1="3" y1="20" x2="43" y2="20" stroke="#DAD0D1" stroke-width="6" stroke-linecap="round"/>
<line x1="16" y1="40.5" x2="34" y2="40.5" stroke="#DAD0D1"/>
<line x1="16" y1="67.5" x2="52" y2="67.5" stroke="#DAD0D1"/>
<line x1="16" y1="53.5" x2="52" y2="53.5" stroke="#DAD0D1"/>
<path fill-rule="evenodd" clip-rule="evenodd" d="M47.7374 33.3862C47.6324 33.518 47.5624 33.6741 47.5339 33.8402L46.2597 41.2667C46.1264 42.0437 46.9027 42.6623 47.6303 42.3588L54.8216 39.359C54.8216 39.359 54.8216 39.359 54.8216 39.359V39.359C54.8216 39.359 54.8216 39.359 54.8216 39.359L78.4284 9.73042C78.4315 9.72653 78.4309 9.72085 78.427 9.71775V9.71775C78.4229 9.71445 78.4224 9.7083 78.4261 9.70446C78.5198 9.60593 78.6101 9.50246 78.6964 9.39408C80.2903 7.39363 79.9607 4.47985 77.9602 2.88598C75.9598 1.2921 73.046 1.62169 71.4521 3.62214C71.3658 3.73052 71.2851 3.84158 71.21 3.95496C71.2071 3.95938 71.201 3.96035 71.1968 3.95705V3.95705C71.1929 3.95394 71.1873 3.95459 71.1842 3.95848L47.7374 33.3862Z" fill="#DAD0D1"/>
</svg>
